<?xml version="1.0" standalone="no"?>
<!DOCTYPE svg PUBLIC "-//W3C//DTD SVG 20010904//EN"
 "http://www.w3.org/TR/2001/REC-SVG-20010904/DTD/svg10.dtd">
<svg version="1.0" xmlns="http://www.w3.org/2000/svg"
 width="169.000000pt" height="169.000000pt" viewBox="0 0 169.000000 169.000000"
 preserveAspectRatio="xMidYMid meet">
<metadata>
Created by potrace 1.14, written by Peter Selinger 2001-2017
</metadata>
<g transform="translate(0.000000,169.000000) scale(0.100000,-0.100000)"
fill="#000000" stroke="none">
<path d="M718 1680 c-322 -59 -571 -283 -660 -595 -19 -68 -23 -103 -23 -240
0 -136 4 -172 23 -237 82 -287 294 -499 577 -580 113 -32 306 -32 417 0 286
81 499 293 580 577 19 68 23 103 23 240 0 136 -4 172 -23 237 -82 285 -295
500 -572 578 -84 24 -265 34 -342 20z m267 -204 c22 -10 48 -22 57 -27 10 -5
24 -9 33 -9 8 0 19 -9 25 -19 5 -11 26 -25 45 -31 37 -12 40 -17 26 -39 -8
-13 -16 -13 -53 -2 -66 20 -152 53 -162 63 -6 4 -17 8 -25 8 -26 1 -75 46 -68
64 8 20 67 16 122 -8z m-147 -67 c3 -15 -35 -48 -62 -54 -14 -3 -51 -16 -116
-42 -49 -20 -129 -41 -134 -35 -17 16 -2 41 32 55 20 10 55 27 77 38 22 12 51
26 65 32 14 5 32 13 40 17 27 14 94 6 98 -11z m-202 -194 c4 -14 5 -27 3 -29
-2 -2 -32 -7 -66 -11 l-63 -7 0 29 c0 40 5 43 66 43 49 0 54 -2 60 -25z m292
-7 l3 -28 -65 0 c-62 0 -66 1 -66 23 0 34 8 38 70 35 52 -3 55 -5 58 -30z
m276 26 c10 -4 16 -18 16 -36 l0 -31 -62 7 c-35 4 -65 9 -67 11 -2 2 -1 16 3
30 6 22 12 25 50 25 25 0 51 -3 60 -6z m-554 -184 c10 -91 9 -107 -6 -139 -36
-76 -28 -171 22 -237 16 -22 23 -47 26 -90 l3 -59 -54 -3 c-30 -2 -58 1 -63 6
-8 8 -51 421 -60 572 l-3 45 60 5 c33 3 61 5 62 4 2 0 8 -47 13 -104z m558 95
c8 -3 11 -17 7 -42 -3 -21 -17 -157 -30 -302 -13 -146 -28 -268 -33 -273 -5
-5 -33 -8 -63 -6 l-54 3 4 70 c2 49 11 84 28 119 23 45 24 56 18 120 -9 84 -9
224 0 282 l6 41 52 -4 c29 -3 58 -6 65 -8z m-278 -47 l0 -53 -65 -1 -65 0 0
53 0 53 65 0 65 0 0 -52z m18 -115 c74 -35 119 -131 101 -215 -11 -46 -26 -78
-38 -78 -4 0 -22 34 -41 76 -18 42 -55 112 -80 155 -26 43 -45 81 -42 84 8 8
60 -4 100 -22z m-81 -70 c65 -111 126 -250 112 -259 -13 -8 -7 -18 -72 118
-30 64 -69 137 -86 162 -33 48 -38 66 -18 66 7 0 36 -39 64 -87z m-42 -33 c66
-113 119 -240 106 -253 -7 -7 -15 0 -26 27 -43 102 -66 148 -113 224 -29 46
-49 88 -46 93 10 16 30 -7 79 -91z m-54 -12 c44 -75 119 -232 119 -248 0 -19
-66 -10 -118 16 -77 38 -123 126 -108 206 7 38 41 98 55 98 6 0 29 -32 52 -72z
m157 -310 l-3 -33 -60 0 c-58 0 -60 1 -63 27 -3 26 -2 27 55 31 32 2 62 4 66
5 5 1 7 -13 5 -30z m-268 -123 l0 -65 -65 0 -65 0 0 65 0 65 65 0 65 0 0 -65z
m185 0 l0 -60 -65 0 -65 0 -3 49 c-5 74 -2 77 70 74 l63 -3 0 -60z m187 13 c8
-75 6 -78 -68 -77 l-64 1 0 64 0 64 64 0 63 0 5 -52z m183 -13 c0 -51 -3 -60
-19 -63 -14 -3 -17 0 -13 12 5 11 1 15 -14 13 -12 -1 -26 6 -33 16 -15 23 5
53 33 50 13 -2 20 1 16 7 -12 20 -54 10 -71 -16 -16 -24 -16 -26 5 -55 l23
-30 -29 3 c-27 3 -28 5 -31 66 l-3 63 68 -3 68 -3 0 -60z m-601 -91 c9 -8 16
-22 16 -29 0 -20 -28 -45 -51 -45 -12 0 -19 -7 -19 -20 0 -11 -7 -20 -15 -20
-12 0 -15 14 -15 65 l0 65 34 0 c19 0 42 -7 50 -16z m136 -4 c39 -39 11 -110
-42 -110 -29 0 -42 9 -57 38 -33 63 49 122 99 72z m134 -2 c8 -13 8 -23 -2
-38 -9 -15 -10 -26 -2 -40 13 -25 13 -30 -5 -30 -8 0 -21 12 -29 28 -8 15 -16
24 -17 20 -1 -5 -3 -12 -4 -18 -1 -5 -3 -14 -4 -20 0 -5 -8 -10 -16 -10 -12 0
-15 14 -15 66 l0 65 41 -3 c27 -2 46 -9 53 -20z m126 12 c0 -5 -9 -10 -20 -10
-18 0 -20 -7 -20 -55 0 -42 -3 -55 -15 -55 -12 0 -15 13 -15 55 0 48 -2 55
-20 55 -11 0 -20 5 -20 10 0 6 25 10 55 10 30 0 55 -4 55 -10z m100 0 c0 -5
-11 -10 -25 -10 -18 0 -25 -5 -25 -20 0 -12 7 -20 18 -21 16 -1 16 -2 0 -6
-29 -7 -23 -43 7 -43 14 0 25 -4 25 -10 0 -5 -20 -10 -45 -10 l-45 0 0 58 c0
32 3 62 7 65 10 11 83 8 83 -3z m105 -6 c10 -10 13 -23 9 -33 -9 -21 -9 -42 1
-63 12 -29 -24 -22 -37 7 -6 14 -15 25 -20 25 -4 0 -8 -11 -8 -25 0 -16 -6
-25 -15 -25 -12 0 -15 14 -15 65 l0 65 34 0 c19 0 42 -7 51 -16z"/>
<path d="M579 476 c-35 -17 -37 -60 -5 -81 20 -13 29 -14 43 -5 15 9 15 11 1
6 -22 -6 -40 17 -36 46 2 14 12 24 28 28 19 5 21 7 9 12 -9 3 -27 1 -40 -6z"/>
<path d="M740 436 c0 -50 16 -69 29 -35 l8 23 12 -22 c18 -34 27 -26 26 26 l0
47 -37 3 -38 3 0 -45z m50 19 c0 -8 -4 -15 -10 -15 -5 0 -10 7 -10 15 0 8 5
15 10 15 6 0 10 -7 10 -15z"/>
<path d="M952 433 c2 -27 8 -48 13 -48 6 0 11 21 13 48 3 38 0 47 -13 47 -13
0 -16 -9 -13 -47z"/>
<path d="M560 315 c0 -17 5 -25 13 -22 6 2 12 12 12 22 0 10 -6 20 -12 23 -8
2 -13 -6 -13 -23z"/>
<path d="M684 316 c-8 -34 4 -68 24 -64 24 5 24 81 0 86 -12 2 -19 -5 -24 -22z"/>
<path d="M826 324 c-9 -22 -8 -24 9 -24 8 0 15 9 15 20 0 24 -15 27 -24 4z"/>
<path d="M1160 320 c0 -11 7 -20 15 -20 8 0 15 9 15 20 0 11 -7 20 -15 20 -8
0 -15 -9 -15 -20z"/>
</g>
</svg>
